<svg width="35" height="36" viewBox="0 0 35 36" fill="none" xmlns="http://www.w3.org/2000/svg">
<path d="M35 18C35 27.665 27.165 35.5 17.5 35.5C7.83502 35.5 0 27.665 0 18C0 8.33502 7.83502 0.5 17.5 0.5C27.165 0.5 35 8.33502 35 18Z" fill="#2083FF"/>
<path d="M27.7586 27.6882L21.639 21.5679C22.6252 20.2128 23.1557 18.5795 23.1541 16.9035C23.1541 12.5168 19.5848 8.94771 15.1977 8.94771C10.8107 8.94771 7.24138 12.5168 7.24138 16.9035C7.24138 21.2903 10.8107 24.8593 15.1977 24.8593C16.8738 24.8609 18.5072 24.3305 19.8624 23.3443L25.9831 29.4636L27.7586 27.6882ZM15.1977 22.3466C14.121 22.3467 13.0684 22.0275 12.173 21.4294C11.2777 20.8313 10.5799 19.9811 10.1678 18.9864C9.75565 17.9917 9.6478 16.8972 9.85784 15.8412C10.0679 14.7852 10.5864 13.8151 11.3478 13.0538C12.1091 12.2925 13.0792 11.774 14.1353 11.564C15.1914 11.354 16.286 11.4618 17.2808 11.8739C18.2756 12.286 19.1258 12.9838 19.7239 13.879C20.3221 14.7743 20.6413 15.8268 20.6412 16.9035C20.6395 18.3466 20.0655 19.7301 19.045 20.7505C18.0245 21.7709 16.6409 22.3449 15.1977 22.3466Z" fill="white"/>
</svg>
